# xmcd
# 
# Track frame offsets:
#     150
#     15365
#     32782
#     50677
#     70190
#     88157
#     106655
#     123642
#     142285
#     162910
#     180685
#     200905
#     220525
#     235877
# 
# Disc length: 3476
# 
# Revision: 3
# Processed by: cddbd v1.5.2PL0 Copyright (c) Steve Scherf et al.
# Submitted via: BonkEnc v1.0.6
# 
DISCID=ca0d920e
DTITLE=Zezé De Camargo and Luciano - As Melhores
DYEAR=1998
DGENRE=Country
TTITLE0=É O Amor.
TTITLE1=Coração Está Em Pedaços.
TTITLE2=Você Vai Ver.
TTITLE3=Saudade Bandida.
TTITLE4=Pão De Mel.
TTITLE5=Indiferença.
TTITLE6=Toma Juízo.
TTITLE7=Faz Mais Uma Vez Comigo.
TTITLE8=Sem Medo De Ser Feliz.
TTITLE9=Vem Cuidar De Mim.
TTITLE10=Cada Volta É Um Recomeço.
TTITLE11=Melhor Que Antes.
TTITLE12=Quem Sou Eu Sem Ela.
TTITLE13=Preciso Ser Amado.
EXTD=
EXTT0=
EXTT1=
EXTT2=
EXTT3=
EXTT4=
EXTT5=
EXTT6=
EXTT7=
EXTT8=
EXTT9=
EXTT10=
EXTT11=
EXTT12=
EXTT13=
PLAYORDER=
